<svg 
 xmlns="http://www.w3.org/2000/svg"
 xmlns:xlink="http://www.w3.org/1999/xlink"
 width="473.5px" height="337.5px">
<path fill-rule="evenodd"  stroke="rgb(126, 107, 90)" stroke-width="3px" stroke-linecap="butt" stroke-linejoin="miter" fill="none"
 d="M4.500,276.500 C107.328,247.141 270.402,258.140 290.500,289.500 C310.598,320.860 420.394,318.150 469.500,309.500 "/>
<path fill-rule="evenodd"  stroke="rgb(126, 107, 90)" stroke-width="3px" stroke-linecap="butt" stroke-linejoin="miter" fill="none"
 d="M115.500,128.500 C177.893,229.239 118.741,303.069 97.500,332.500 "/>
<path fill-rule="evenodd"  stroke="rgb(126, 107, 90)" stroke-width="3px" stroke-linecap="butt" stroke-linejoin="miter" fill="none"
 d="M240.500,126.500 C158.936,290.846 214.452,328.870 217.500,332.500 "/>
<path fill-rule="evenodd"  stroke="rgb(27, 185, 52)" stroke-width="3px" stroke-linecap="butt" stroke-linejoin="miter" fill="none"
 d="M141.500,197.500 C102.589,235.557 60.119,205.595 59.500,169.500 C58.881,133.405 81.576,143.590 85.500,143.500 "/>
<path fill-rule="evenodd"  stroke="rgb(27, 185, 52)" stroke-width="3px" stroke-linecap="butt" stroke-linejoin="miter" fill="none"
 d="M84.500,144.500 C-52.233,119.188 9.560,55.946 64.500,56.500 "/>
<path fill-rule="evenodd"  stroke="rgb(27, 185, 52)" stroke-width="3px" stroke-linecap="butt" stroke-linejoin="miter" fill="none"
 d="M63.500,57.500 C40.450,7.031 84.547,-12.368 161.500,20.500 "/>
<path fill-rule="evenodd"  stroke="rgb(27, 185, 52)" stroke-width="3px" stroke-linecap="butt" stroke-linejoin="miter" fill="none"
 d="M160.500,21.500 C267.416,-8.239 330.122,-5.966 288.500,44.500 "/>
<path fill-rule="evenodd"  stroke="rgb(27, 185, 52)" stroke-width="3px" stroke-linecap="butt" stroke-linejoin="miter" fill="none"
 d="M287.500,42.500 C416.445,12.823 392.817,78.865 357.500,98.500 "/>
<path fill-rule="evenodd"  stroke="rgb(27, 185, 52)" stroke-width="3px" stroke-linecap="butt" stroke-linejoin="miter" fill="none"
 d="M356.500,97.500 C229.501,93.387 429.180,175.882 332.500,186.500 "/>
<path fill-rule="evenodd"  stroke="rgb(27, 185, 52)" stroke-width="3px" stroke-linecap="butt" stroke-linejoin="miter" fill="none"
 d="M211.500,190.500 C284.267,270.837 374.520,213.900 331.500,185.500 "/>
<path fill-rule="evenodd"  stroke="rgb(126, 107, 90)" stroke-width="3px" stroke-linecap="butt" stroke-linejoin="miter" fill="none"
 d="M117.500,63.500 C211.069,110.236 160.809,176.413 152.500,181.500 C144.191,186.587 236.500,77.500 236.500,77.500 "/>
</svg>